<svg id="Capa_1" enable-background="new 0 0 512 512" height="512" viewBox="0 0 512 512" width="512" xmlns="http://www.w3.org/2000/svg"><g><g><path d="m171 371h-30c-8.284 0-15 6.716-15 15v26h60v-26c0-8.284-6.716-15-15-15z"/><path d="m301 311h-30c-8.284 0-15 6.716-15 15v86h60v-86c0-8.284-6.716-15-15-15z"/><path d="m431 251h-30c-8.284 0-15 6.716-15 15v146h60v-146c0-8.284-6.716-15-15-15z"/></g><path d="m497 442h-427v-427c0-8.284-6.716-15-15-15s-15 6.716-15 15v7h-25c-8.284 0-15 6.716-15 15s6.716 15 15 15h25v30h-25c-8.284 0-15 6.716-15 15s6.716 15 15 15h25v30h-25c-8.284 0-15 6.716-15 15s6.716 15 15 15h25v30h-25c-8.284 0-15 6.716-15 15s6.716 15 15 15h25v30h-25c-8.284 0-15 6.716-15 15s6.716 15 15 15h25v30h-25c-8.284 0-15 6.716-15 15s6.716 15 15 15h25v30h-25c-8.284 0-15 6.716-15 15s6.716 15 15 15h25v30h-25c-8.284 0-15 6.716-15 15s6.716 15 15 15h25v25c0 8.284 6.716 15 15 15s15-6.716 15-15v-25h30v25c0 8.284 6.716 15 15 15s15-6.716 15-15v-25h30v25c0 8.284 6.716 15 15 15s15-6.716 15-15v-25h30v25c0 8.284 6.716 15 15 15s15-6.716 15-15v-25h30v25c0 8.284 6.716 15 15 15s15-6.716 15-15v-25h30v25c0 8.284 6.716 15 15 15s15-6.716 15-15v-25h30v25c0 8.284 6.716 15 15 15s15-6.716 15-15v-25h30v25c0 8.284 6.716 15 15 15s15-6.716 15-15v-25h7c8.284 0 15-6.716 15-15s-6.716-15-15-15z"/><path d="m497 81h-70c-8.284 0-15 6.716-15 15s6.716 15 15 15h33.787l-77.399 77.399-40.817-16.327c-6.74-2.696-14.443-.179-18.291 5.977l-43.094 68.951-78.093-34.708c-6.391-2.84-13.896-.888-18.092 4.707l-60 80c-4.971 6.627-3.627 16.029 3 21s16.029 3.627 21-3l52.829-70.438 79.079 35.146c6.829 3.035 14.851.58 18.812-5.757l43.353-69.365 38.355 15.342c5.571 2.229 11.935.922 16.177-3.321l84.394-84.393v33.787c0 8.284 6.716 15 15 15s15-6.716 15-15v-70c0-8.284-6.716-15-15-15z"/><path d="m286 150c-30.327 0-55-24.673-55-55 0-7.66 2.283-21.779 22.025-55.812 10.18-17.548 20.211-32.103 20.633-32.714 2.801-4.054 7.414-6.474 12.342-6.474s9.541 2.42 12.342 6.475c.422.611 10.453 15.166 20.633 32.714 19.742 34.032 22.025 48.151 22.025 55.811 0 30.327-24.673 55-55 55z"/></g></svg>