<svg id="Icons" height="512" viewBox="0 0 74 74" width="512" xmlns="http://www.w3.org/2000/svg"><path d="m58.6 65.977h-49.222a1 1 0 0 1 -1-1v-61.977a1 1 0 0 1 1-1h49.222a1 1 0 0 1 1 1v61.977a1 1 0 0 1 -1 1zm-48.218-2h47.218v-59.977h-47.222z"/><path d="m64.62 42a1 1 0 0 1 -1-1v-2.9a1 1 0 0 1 2 0v2.9a1 1 0 0 1 -1 1z"/><path d="m64.62 72h-50.22a1 1 0 0 1 -1-1v-6.02a1 1 0 0 1 2-.01v5.03h48.22v-12.03a1 1 0 0 1 2 0v13.03a1 1 0 0 1 -1 1z"/><path d="m64.62 51.97a1 1 0 0 1 -1-1v-2.97a1 1 0 0 1 2 0v2.97a1 1 0 0 1 -1 1z"/><path d="m64.62 32.1a1 1 0 0 1 -1-1v-22.08h-5.02a1 1 0 0 1 0-2h6.02a1 1 0 0 1 1 1v23.08a1 1 0 0 1 -1 1z"/><path d="m51.9 16.76h-21.3a1 1 0 1 1 0-2h21.3a1 1 0 0 1 0 2z"/><path d="m18.4 20.479a1 1 0 0 1 -.707-.293l-2.326-2.327a1 1 0 1 1 1.414-1.414l1.619 1.619 5.939-5.939a1 1 0 1 1 1.411 1.415l-6.65 6.646a1 1 0 0 1 -.7.293z"/><path d="m51.9 28.608h-21.3a1 1 0 0 1 0-2h21.3a1 1 0 0 1 0 2z"/><path d="m18.4 32.367a1 1 0 0 1 -.707-.293l-2.326-2.326a1 1 0 1 1 1.414-1.414l1.619 1.619 5.939-5.939a1 1 0 0 1 1.414 1.414l-6.653 6.646a1 1 0 0 1 -.7.293z"/><path d="m51.9 40.457h-21.3a1 1 0 0 1 0-2h21.3a1 1 0 0 1 0 2z"/><path d="m18.4 44.256a1 1 0 0 1 -.707-.293l-2.326-2.326a1 1 0 1 1 1.414-1.414l1.619 1.619 5.936-5.942a1 1 0 0 1 1.414 1.414l-6.65 6.649a1 1 0 0 1 -.7.293z"/><path d="m51.9 52.306h-21.3a1 1 0 0 1 0-2h21.3a1 1 0 0 1 0 2z"/><path d="m18.4 56.145a1 1 0 0 1 -.707-.293l-2.326-2.326a1 1 0 1 1 1.414-1.414l1.619 1.618 5.939-5.938a1 1 0 0 1 1.414 1.414l-6.653 6.646a1 1 0 0 1 -.7.293z"/></svg>